<svg width="400" height="400" viewBox="0 0 400 400" fill="none" xmlns="http://www.w3.org/2000/svg">
<g clip-path="url(#clip0_142_2)">
<rect width="400" height="400" fill="#1C2127"/>
<circle cx="200.97" cy="198.127" r="148.389" transform="rotate(-90 200.97 198.127)" stroke="#888888" stroke-width="2"/>
<path d="M320.481 287.76L278.949 256.433C228.692 218.525 191.633 165.768 173.02 105.632L157.511 55.5282" stroke="#888888" stroke-width="2"/>
<path d="M319.123 108.493L276.934 140.557C227.09 178.438 190.346 230.964 171.851 290.775L156.601 340.087" stroke="#888888" stroke-width="2"/>
<path d="M319.123 287.76L282.247 259.624C229.967 219.734 166.029 198.127 100.268 198.127L51.5807 198.127" stroke="#888888" stroke-width="2"/>
<path d="M319.123 108.695L281.992 136.963C229.866 176.645 166.185 198.175 100.674 198.262L51.5808 198.328" stroke="#888888" stroke-width="2"/>
<path d="M157.511 340.726L174.199 286.229C191.65 229.241 191.731 168.346 174.431 111.312L157.511 55.5282" stroke="#888888" stroke-width="2"/>
<path d="M319.123 108.494L304.981 176.059C302.215 189.276 302.154 202.916 304.802 216.157L319.123 287.761" stroke="#888888" stroke-width="2"/>
<path d="M157.511 55.5284V55.5284C201.516 89.8521 255.725 108.494 311.533 108.494L319.123 108.494" stroke="#888888" stroke-width="2"/>
<path d="M157.511 340.595V340.595C141.187 287.209 108.288 240.407 63.5818 206.972L51.5808 197.996" stroke="#888888" stroke-width="2"/>
<path d="M157.511 55.3976V55.3976C141.624 107.913 109.498 154.04 65.7492 187.151L51.7879 197.717" stroke="#888888" stroke-width="2"/>
<path d="M157.511 340.595V340.595C201.516 306.271 255.725 287.63 311.533 287.63L319.123 287.63" stroke="#888888" stroke-width="2"/>
<path d="M156.153 340.454L249.438 269.558C266.052 256.931 278.3 239.422 284.466 219.486L318.675 108.861" stroke="#888888" stroke-width="2"/>
<path d="M51.5807 198.127L143.441 127.988C161.164 114.455 182.902 107.234 205.2 107.474L319.123 108.695" stroke="#888888" stroke-width="2"/>
<path d="M51.5807 198.127L143.59 267.576C160.943 280.674 182.093 287.76 203.835 287.76L319.123 287.76" stroke="#888888" stroke-width="2"/>
<path d="M157.511 55.5282L122.976 168.307C117.159 187.303 117.132 207.601 122.899 226.613L157.511 340.726" stroke="#888888" stroke-width="2"/>
<path d="M156.153 55.5283L250.133 126.146C267.161 138.941 279.658 156.838 285.806 177.231L319.123 287.76" stroke="#FF0000" stroke-width="2"/>
<circle cx="51.5809" cy="198.127" r="13.5808" transform="rotate(-90 51.5809 198.127)" fill="#BEC6CF"/>
<circle cx="157.511" cy="340.726" r="13.5808" transform="rotate(-90 157.511 340.726)" fill="#BEC6CF"/>
<circle cx="319.123" cy="287.76" r="13.5808" transform="rotate(-90 319.123 287.76)" fill="#FF7A00"/>
<circle cx="321.839" cy="108.494" r="13.5808" transform="rotate(-90 321.839 108.494)" fill="#BEC6CF"/>
<circle cx="157.511" cy="55.5283" r="13.5808" transform="rotate(-90 157.511 55.5283)" fill="#28A4D9"/>
</g>
<defs>
<clipPath id="clip0_142_2">
<rect width="400" height="400" fill="white"/>
</clipPath>
</defs>
</svg>
